<svg width="100" height="100" viewBox="0 0 100 100" xmlns="http://www.w3.org/2000/svg" role="img" aria-label="DunongAI">
  <defs>
    <linearGradient id="f-tile" x1="0" y1="0" x2="0" y2="1">
      <stop offset="0" stop-color="#2FB9AE"/>
      <stop offset="1" stop-color="#0B8178"/>
    </linearGradient>
    <linearGradient id="f-gold" x1="0" y1="0" x2="0" y2="1">
      <stop offset="0" stop-color="#FFD36B"/>
      <stop offset="1" stop-color="#F59E0B"/>
    </linearGradient>
  </defs>
  <rect x="2" y="2" width="96" height="96" rx="24" fill="url(#f-tile)"/>
  <path d="M50,57 C39,51 27,49 20,50 L20,74 C27,73 39,74 50,79 Z" fill="#FFFFFF"/>
  <path d="M50,57 C61,51 73,49 80,50 L80,74 C73,73 61,74 50,79 Z" fill="#FFFFFF"/>
  <path d="M50,57 L50,79" stroke="#0A1628" stroke-opacity="0.18" stroke-width="2" stroke-linecap="round"/>
  <g transform="translate(50,36)">
    <path d="M0,-12 C2.1,-3.9 3.9,-2.1 12,0 C3.9,2.1 2.1,3.9 0,12 C-2.1,3.9 -3.9,2.1 -12,0 C-3.9,-2.1 -2.1,-3.9 0,-12 Z" fill="url(#f-gold)"/>
  </g>
</svg>
